<?xml version="1.0" encoding="UTF-8"?>
<svg version="1.1" xmlns="http://www.w3.org/2000/svg" width="512" height="512">
<path d="M0 0 C1.53450793 -0.00417831 3.06901277 -0.00965854 4.60351193 -0.01631981 C8.79919869 -0.03072805 12.99468824 -0.02654422 17.19038558 -0.019153 C21.72356094 -0.01441214 26.2566942 -0.02693929 30.78985596 -0.03717041 C39.66259329 -0.05434584 48.53525976 -0.05520101 57.4080094 -0.04995751 C64.62163438 -0.04591219 71.83523847 -0.04736366 79.04886246 -0.05270576 C80.59028467 -0.0538284 80.59028467 -0.0538284 82.16284672 -0.05497371 C84.25060661 -0.05650523 86.3383665 -0.05804357 88.42612638 -0.05958868 C107.99442155 -0.07330921 127.56267671 -0.06787919 147.13097097 -0.05640347 C165.02161346 -0.04647183 182.91215252 -0.05941136 200.80277906 -0.08333766 C219.18620609 -0.10773721 237.56958495 -0.1173344 255.95302784 -0.11068493 C266.26860062 -0.10719459 276.58409387 -0.10941261 286.89965439 -0.12693596 C295.68112349 -0.14166863 304.46245705 -0.14227942 313.24392353 -0.12486505 C317.72140371 -0.11636144 322.19864185 -0.11418984 326.67610931 -0.1295166 C330.78073443 -0.14339277 334.88491084 -0.13856322 338.98951019 -0.11927737 C340.46855234 -0.11552599 341.94763068 -0.11841431 343.4266405 -0.12888902 C359.32709185 -0.23342725 370.82535548 3.86332431 382.50564575 14.70018005 C392.28720158 25.03540886 395.21924417 36.71443673 395.14332581 50.59492493 C395.15140411 52.38363705 395.15140411 52.38363705 395.15964562 54.20848477 C395.17141449 57.49209223 395.16988353 60.77537079 395.1624788 64.0589807 C395.15772736 67.61055674 395.17027439 71.1620796 395.18049622 74.71363831 C395.19765117 81.66130365 395.19853109 88.60887841 395.19328331 95.55655943 C395.1892341 101.20649433 395.19069407 106.85640257 395.19603157 112.50633621 C395.19677999 113.31192212 395.19752841 114.11750803 395.19829952 114.94750563 C395.19983107 116.58430552 395.20136942 118.22110541 395.20291448 119.85790528 C395.21662765 135.19139436 395.21121024 150.52483235 395.19972927 165.85832025 C395.18979878 179.8690579 395.20273647 193.87966345 395.22666346 207.89038073 C395.25107872 222.29616707 395.26065634 236.70189195 395.25401074 251.10769856 C395.25052382 259.18762563 395.25271561 267.26745115 395.27026176 275.34736252 C395.28501416 282.22575864 395.2855797 289.1039817 395.26819085 295.98237453 C395.25970321 299.48775028 395.25747588 302.99281728 395.27284241 306.49817657 C395.28607129 310.30789607 395.27448619 314.11678367 395.2568512 317.9264679 C395.2664562 319.0208495 395.27606121 320.11523111 395.28595728 321.2427758 C395.15313539 335.24830513 389.86446352 345.98309935 380.44314575 356.13768005 C368.04769073 367.86909284 354.31231765 368.83621109 338.09060669 368.79173279 C336.20726111 368.79744217 334.32391899 368.80440862 332.44058228 368.81253052 C327.34997454 368.83040754 322.25953967 368.82930465 317.16891003 368.82358813 C312.91407928 368.82049049 308.65928147 368.82659465 304.40445542 368.83262688 C294.36947256 368.84665056 284.33457489 368.84512684 274.29959106 368.83372498 C263.95090194 368.8222265 253.60247144 368.83635341 243.25381637 368.86312145 C234.35845928 368.8852678 225.46318346 368.8919188 216.56780076 368.88604504 C211.2591343 368.88267407 205.9506339 368.88510084 200.64199066 368.90229607 C195.65467226 368.91774769 190.66773829 368.91382945 185.68043518 368.89499092 C183.8510826 368.89130111 182.02170163 368.89442492 180.19237518 368.90487671 C177.69412055 368.91806073 175.19714376 368.90656329 172.69894409 368.8888855 C171.97618026 368.8984905 171.25341644 368.90809551 170.50875068 368.91799158 C165.46952289 368.84467838 162.6568441 367.51355142 158.75564575 364.38768005 C155.12730912 360.56837833 154.44564117 357.50488999 154.25564575 352.38768005 C154.44564117 347.27047011 155.12730912 344.20698177 158.75564575 340.38768005 C163.2713815 336.80067261 166.67931313 335.80798968 172.32603455 335.8888855 C173.43900903 335.88080867 173.43900903 335.88080867 174.57446784 335.87256867 C177.05032125 335.85933868 179.52517588 335.87442035 182.00100708 335.88938904 C183.7803747 335.88556438 185.55973923 335.87994409 187.33909607 335.87266541 C191.1663528 335.86072254 194.99333515 335.86119833 198.82059669 335.87125969 C204.87673925 335.88683416 210.93260062 335.87313218 216.98872375 335.85522461 C228.75548798 335.82440965 240.5221662 335.82290282 252.28896332 335.82487488 C267.25563844 335.82626775 282.22224712 335.81587134 297.18887347 335.77629715 C303.2043914 335.76138857 309.21965982 335.76161534 315.23518145 335.77377498 C318.98428244 335.77849739 322.73328864 335.77094818 326.48237419 335.76023102 C328.21532384 335.75783189 329.94828959 335.76053532 331.68122101 335.76883888 C345.91859909 336.29622357 345.91859909 336.29622357 358.19314575 330.13768005 C362.03825827 323.37028203 362.04418941 316.88298253 362.01634216 309.2802887 C362.02016771 308.16993157 362.02399326 307.05957445 362.02793473 305.91557014 C362.03824371 302.19935663 362.0342765 298.48329824 362.03030396 294.76707458 C362.03465159 292.10087065 362.03977055 289.43467805 362.04579163 286.76847839 C362.05852779 280.28063436 362.06033366 273.79283174 362.05799136 267.30497731 C362.05620679 262.03014026 362.05796083 256.75531575 362.06221581 251.48048019 C362.06310859 250.35345321 362.06310859 250.35345321 362.06401941 249.20365801 C362.06523119 247.67717632 362.06644532 246.15069464 362.06766178 244.62421297 C362.0785332 230.31520422 362.07637675 216.00621906 362.07027694 201.69720899 C362.06510842 188.61545481 362.07636219 175.53377512 362.09537516 162.45203568 C362.11476118 149.01026606 362.1230082 135.56853166 362.11925191 122.12674797 C362.11734098 114.58400196 362.11981677 107.04131933 362.13396645 99.49858475 C362.14589098 93.0771618 362.14727317 86.65584124 362.13517628 80.23441686 C362.12929499 76.96034543 362.12980052 73.68649946 362.14017868 70.41243362 C362.15063302 66.85779545 362.14255529 63.30365889 362.12986755 59.7490387 C362.13724184 58.72169117 362.14461612 57.69434365 362.15221387 56.63586438 C362.09854291 49.47814453 361.5385039 42.40244305 356.50564575 36.95018005 C348.89352665 32.62511238 341.14523062 33.10184936 332.61114502 33.12698364 C331.15958614 33.12396129 329.70802885 33.12007139 328.25647438 33.11539108 C324.27628383 33.10511308 320.29618337 33.10729239 316.31598544 33.11157167 C312.02004447 33.11403925 307.72412517 33.10502432 303.42819214 33.09753418 C295.01527305 33.08478603 286.60238587 33.08299364 278.18945874 33.08533444 C271.35093066 33.08711764 264.51241227 33.08536792 257.67388535 33.08111 C256.70050512 33.08051481 255.7271249 33.07991962 254.72424831 33.0793064 C252.74680663 33.07809464 250.76936495 33.07688051 248.79192327 33.07566402 C230.24810635 33.06478802 211.70430761 33.06695125 193.16048966 33.07304887 C176.19882642 33.078218 159.23722062 33.06696277 142.27556874 33.04795065 C124.85615708 33.02857522 107.43677259 33.02031574 90.01735008 33.0240739 C80.23895559 33.0259864 70.46060998 33.0234936 60.68222427 33.00935936 C52.3577233 32.99744836 44.03330131 32.99603753 35.70879926 33.00814953 C31.46262557 33.01404019 27.21659636 33.01513248 22.97043228 33.00314713 C19.08055912 32.99229516 15.19095118 32.99538342 11.30109046 33.00940881 C9.89670754 33.01205764 8.49230388 33.00968333 7.0879413 33.00167295 C-5.74549496 32.78207645 -5.74549496 32.78207645 -16.68185425 38.63768005 C-20.34757503 45.08934864 -20.53223972 51.20340925 -20.49972534 58.45042419 C-20.50515602 59.92979713 -20.50515602 59.92979713 -20.51069641 61.4390564 C-20.51756612 63.57082256 -20.52010042 65.70260621 -20.51874924 67.83438301 C-20.51778114 71.20980796 -20.53075869 74.58491699 -20.54772949 77.96029663 C-20.5939253 87.55366102 -20.6186184 97.14699138 -20.62521362 106.74046326 C-20.63022665 112.61659776 -20.65446102 118.49239967 -20.69054031 124.36842155 C-20.70033803 126.60468487 -20.70267043 128.84099392 -20.69736862 131.07727242 C-20.69030222 134.20332086 -20.70757063 137.32837589 -20.73019409 140.45433044 C-20.72202164 141.3755368 -20.71384918 142.29674316 -20.70542908 143.24586487 C-20.77689531 148.79832454 -21.54256883 151.98271868 -25.24435425 156.38768005 C-29.06365597 160.01601669 -32.12714431 160.69768464 -37.24435425 160.88768005 C-42.36156419 160.69768464 -45.42505253 160.01601669 -49.24435425 156.38768005 C-53.89022235 150.97339728 -53.8166355 146.41808165 -53.76193237 139.6157074 C-53.76894165 138.54170685 -53.77595093 137.4677063 -53.78317261 136.36116028 C-53.80075768 132.81504855 -53.78912229 129.26973727 -53.77560425 125.72361755 C-53.77830018 123.24987129 -53.78218345 120.77612606 -53.78720093 118.30238342 C-53.79309771 113.11570657 -53.7845312 107.92930531 -53.76583862 102.74266052 C-53.74312105 96.11866318 -53.75612603 89.49531674 -53.78012848 82.87134361 C-53.79464248 77.75983354 -53.78995353 72.64847547 -53.77961731 67.5369606 C-53.77696178 65.09630378 -53.78017814 62.65563285 -53.78953552 60.21499252 C-53.79978506 56.78830176 -53.78407878 53.36263515 -53.76193237 49.9360199 C-53.7700293 48.94130676 -53.77812622 47.94659363 -53.78646851 46.92173767 C-53.62386234 33.22318447 -48.12154812 22.54260954 -38.93185425 12.63768005 C-27.56572286 1.88044856 -15.12207287 -0.06728843 0 0 Z " fill="#000000" transform="translate(85.24435424804688,71.61231994628906)"/>
<path d="M0 0 C1.60246582 0.02199463 1.60246582 0.02199463 3.23730469 0.04443359 C44.82828329 1.02165353 84.04098608 20.89593403 112.75 50.4375 C115.95612892 53.96672719 118.88754781 57.62613967 121.75 61.4375 C122.53632813 62.44683594 123.32265625 63.45617187 124.1328125 64.49609375 C143.70328635 90.18475321 154.76582505 122.32382255 155.0625 154.5625 C155.09150391 155.62082031 155.12050781 156.67914063 155.15039062 157.76953125 C155.20131164 164.01323096 154.95243394 167.70496013 150.75 172.4375 C146.93069828 176.06583663 143.86720994 176.74750458 138.75 176.9375 C133.63279006 176.74750458 130.56930172 176.06583663 126.75 172.4375 C121.7043328 166.76231667 121.86135609 160.58875281 121.3125 153.25 C118.63568916 124.13312131 109.03265037 98.63282605 89.75 76.4375 C89.00169922 75.49003906 89.00169922 75.49003906 88.23828125 74.5234375 C83.81995886 68.97837961 78.3281254 64.76522682 72.75 60.4375 C71.88246094 59.75429688 71.01492187 59.07109375 70.12109375 58.3671875 C51.28435344 44.05014196 28.60959966 35.82938349 5.078125 33.9609375 C3.60061768 33.84262573 3.60061768 33.84262573 2.09326172 33.72192383 C0.15874671 33.57728868 -1.77727215 33.45120127 -3.71435547 33.34643555 C-10.70273116 32.86423889 -14.70027213 31.12142407 -19.625 25.9375 C-22.02303575 20.77249991 -22.00381535 16.0372712 -21.25 10.4375 C-16.71890756 0.67822397 -9.7664414 -0.2135161 0 0 Z " fill="#000000" transform="translate(53.25,263.5625)"/>
<path d="M0 0 C0.88010742 0.01281006 1.76021484 0.02562012 2.66699219 0.03881836 C29.0251777 0.83848603 50.65953699 13.49981509 68.94140625 31.75 C84.49786571 48.31108404 92.87751704 70.64967255 93.1875 93.1875 C93.20603027 94.02490723 93.22456055 94.86231445 93.24365234 95.72509766 C93.18787138 101.12710097 92.2408628 104.20853059 88.6875 108.5 C84.86819828 112.12833663 81.80470994 112.81000458 76.6875 113 C71.57029006 112.81000458 68.50680172 112.12833663 64.6875 108.5 C60.36249877 103.28551739 59.92437024 98.68636428 59.3125 92.0625 C57.20547515 74.00526719 50.42027895 59.2113394 36.1171875 47.30859375 C24.05401486 38.32909386 11.43523771 34.34519407 -3.4519043 33.3581543 C-9.72436248 32.83551176 -13.41556948 30.49676897 -17.6875 26 C-20.08553575 20.83499991 -20.06631535 16.0997712 -19.3125 10.5 C-15.30923574 1.87758468 -8.84052076 -0.19643712 0 0 Z " fill="#000000" transform="translate(51.3125,327.5)"/>
<path d="M0 0 C5.82485779 3.51996782 10.54466582 8.98962934 12.5625 15.5 C13.36764105 23.33608208 13.68710392 31.11922577 8.5625 37.5 C3.75801361 42.54521222 -0.59927055 46.10562995 -7.70703125 46.8359375 C-16.22326573 46.92983204 -22.11345494 46.6177288 -28.40234375 40.62890625 C-34.7841668 33.72505269 -35.91792252 28.29832071 -35.7421875 18.9453125 C-35.04689797 11.08319245 -31.38995981 6.95041296 -25.53515625 1.9453125 C-18.47077988 -2.92213491 -7.84396301 -3.47595223 0 0 Z " fill="#000000" transform="translate(67.4375,393.5)"/>
</svg>
